<?xml version="1.0" encoding="UTF-8"?>
<svg id="Livello_1" data-name="Livello 1" xmlns="http://www.w3.org/2000/svg" viewBox="0 0 1371.27 251.09">
  <defs>
    <style>
      .cls-1 {
        fill: #fff;
      }
    </style>
  </defs>
  <g id="Livello_3_copia_2" data-name="Livello 3 copia 2">
    <g>
      <path class="cls-1" d="M28.76,25.44H119.58c1.18,0,2.14-.96,2.14-2.14V2.16c0-1.18-.96-2.14-2.14-2.14H2.35C1.17,.02,.21,.98,.21,2.16V169.02c0,1.18,.96,2.14,2.14,2.14H119.58c1.18,0,2.14-.96,2.14-2.14v-21.14c0-1.18-.96-2.14-2.14-2.14H28.76c-1.18,0-2.14-.96-2.14-2.14v-45.34c0-1.18,.96-2.14,2.14-2.14H106.13c1.18,0,2.14-.96,2.14-2.14v-21.14c0-1.18-.96-2.14-2.14-2.14H28.76c-1.18,0-2.14-.96-2.14-2.14V27.62c-.01-1.21,.95-2.18,2.14-2.18"/>
      <path class="cls-1" d="M346.37,168.07l-40.47-62.34c-.73-1.12-.25-2.61,.98-3.15,1.73-.76,3.44-1.61,5.1-2.56,12.77-7.3,21.73-18.22,26.88-32.79,.04-.13,.07-.27,.11-.41,2.85-15.42,.82-28.88-6.09-40.4-4.89-8.15-11.49-14.59-19.81-19.32C304.76,2.37,295.63,0,285.69,0h-81.46c-1.18,0-2.14,.96-2.14,2.14V169.01c0,1.18,.96,2.14,2.14,2.14h22.12c1.18,0,2.14-.96,2.14-2.14v-59.52c0-1.18,.96-2.14,2.14-2.14h43.42c.73,0,1.41,.37,1.81,.99l39.53,61.84c.39,.61,1.06,.98,1.79,.99l27.37,.21c1.72,.02,2.75-1.88,1.82-3.31m-117.87-88.3V27.58c0-1.18,.96-2.14,2.14-2.14h49.44c6.19,0,11.78,1.22,16.75,3.67s8.88,5.79,11.74,10.03c2.85,4.24,4.28,9.05,4.28,14.42s-1.27,9.99-3.79,14.3c-2.53,4.32-5.95,7.74-10.27,10.27-4.32,2.53-9.17,3.79-14.55,3.79h-53.6c-1.18,.01-2.14-.96-2.14-2.15"/>
      <path class="cls-1" d="M501.8,25.6c33.65,0,61.02,26.96,61.02,60.1s-27.37,60.1-61.02,60.1-61.02-26.96-61.02-60.1,27.37-60.1,61.02-60.1m0-25.6c-48.05,0-87.01,38.37-87.01,85.7s38.95,85.7,87.01,85.7,87.01-38.37,87.01-85.7S549.85,0,501.8,0h0Z"/>
      <path class="cls-1" d="M695.85,169.02V27.59c0-1.18-.96-2.14-2.14-2.14h-50.48c-1.18,0-2.14-.96-2.14-2.14V2.17c0-1.18,.96-2.14,2.14-2.14h133.11c1.18,0,2.14,.96,2.14,2.14V23.31c0,1.18-.96,2.14-2.14,2.14h-51.95c-1.18,0-2.14,.96-2.14,2.14V169.02c0,1.18-.96,2.14-2.14,2.14h-22.12c-1.18,.01-2.14-.96-2.14-2.14"/>
      <path class="cls-1" d="M988.39,168.18L917.59,1.32c-.34-.79-1.11-1.31-1.97-1.31h-25.77c-.86,0-1.63,.51-1.97,1.3l-71.27,166.86c-.6,1.41,.43,2.99,1.97,2.99h22.48c.86,0,1.63-.51,1.97-1.3l16.66-38.96c.34-.79,1.11-1.3,1.97-1.3h80.27c.86,0,1.64,.51,1.97,1.3l16.6,38.96c.34,.79,1.11,1.3,1.97,1.3h23.95c1.54,0,2.58-1.57,1.97-2.98m-114.03-64.01c-1.54,0-2.58-1.57-1.97-2.99l16.29-38.09c1.14-2.93,2.44-6.24,3.91-9.9,1.47-3.67,2.97-7.54,4.52-11.61,1.55-4.07,3.02-8.07,4.4-11.98,.17-.48,.33-.94,.5-1.41,.04,.11,.07,.2,.11,.31,1.47,3.99,3.01,8.19,4.65,12.59,1.63,4.4,3.14,8.52,4.52,12.35,1.38,3.83,2.48,6.72,3.3,8.68l16.64,39.07c.6,1.41-.44,2.99-1.97,2.99h-54.9Z"/>
      <path class="cls-1" d="M1200.37,168.07l-40.47-62.34c-.73-1.12-.25-2.61,.98-3.15,1.73-.76,3.44-1.61,5.1-2.56,12.77-7.3,21.73-18.22,26.88-32.79,.04-.13,.07-.27,.11-.41,2.85-15.42,.82-28.88-6.09-40.4-4.89-8.15-11.49-14.59-19.81-19.32C1158.76,2.37,1149.63,0,1139.69,0h-81.47c-1.18,0-2.14,.96-2.14,2.14V169.01c0,1.18,.96,2.14,2.14,2.14h22.12c1.18,0,2.14-.96,2.14-2.14v-59.52c0-1.18,.96-2.14,2.14-2.14h43.42c.73,0,1.41,.37,1.81,.99l39.53,61.84c.39,.61,1.06,.98,1.79,.99l27.37,.21c1.73,.02,2.77-1.88,1.83-3.31m-117.87-88.3V27.58c0-1.18,.96-2.14,2.14-2.14h49.44c6.19,0,11.78,1.22,16.75,3.67s8.88,5.79,11.74,10.03c2.85,4.24,4.28,9.05,4.28,14.42s-1.27,9.99-3.79,14.3c-2.53,4.32-5.95,7.74-10.27,10.27s-9.17,3.79-14.55,3.79h-53.6c-1.18,.01-2.14-.96-2.14-2.15"/>
      <path class="cls-1" d="M1371.27,41.12v20.89c0,1.18-.96,2.14-2.14,2.14h-30.18c-1.18,0-2.14,.96-2.14,2.14v78.06c0,1.18,.96,2.14,2.14,2.14h30.18c1.18,0,2.14,.96,2.14,2.14v20.89c0,1.18-.96,2.14-2.14,2.14h-91.06c-1.18,0-2.14-.96-2.14-2.14v-20.89c0-1.18,.96-2.14,2.14-2.14h30.19c1.18,0,2.14-.96,2.14-2.14V66.29c0-1.18-.96-2.14-2.14-2.14h-30.19c-1.18,0-2.14-.96-2.14-2.14v-20.89c0-1.18,.96-2.14,2.14-2.14h91.06c1.17,0,2.14,.97,2.14,2.14"/>
    </g>
    <g>
      <path id="SVGID" class="cls-1" d="M1357.52,.01V25.41h12.75c.55,0,1-.45,1-1V1.01c0-.55-.45-1-1-1h-12.75Z"/>
      <rect id="SVGID-2" data-name="SVGID" class="cls-1" x="1336.96" y=".02" width="18.85" height="25.4"/>
      <rect id="SVGID-3" data-name="SVGID" class="cls-1" x="1311.99" y=".02" width="23.18" height="25.4"/>
      <rect id="SVGID-4" data-name="SVGID" class="cls-1" x="1291.37" y=".02" width="18.85" height="25.4"/>
      <path id="SVGID-5" data-name="SVGID" class="cls-1" d="M1276.86,.01c-.5,0-.9,.4-.9,.9V24.51c0,.5,.4,.9,.9,.9h12.85V.01h-12.85Z"/>
    </g>
    <g>
      <path class="cls-1" d="M12.42,251.08L0,216.33H7.61l8.79,25.72,8.51-25.72h7.44l-12.43,34.75h-7.5Z"/>
      <path class="cls-1" d="M41.57,251.08v-34.75h25.77v5.88h-18.75v7.7h17.45v5.86h-17.45v9.46h19.42v5.86h-26.44Z"/>
      <path class="cls-1" d="M79.66,251.08v-34.75h6.83l14.22,23.21v-23.21h6.52v34.75h-7.04l-14.01-22.66v22.66h-6.52Z"/>
      <path class="cls-1" d="M120.28,251.08v-34.75h25.77v5.88h-18.75v7.7h17.45v5.86h-17.45v9.46h19.42v5.86h-26.44Z"/>
      <path class="cls-1" d="M155.29,251.08v-6.33l18.25-22.54h-16.19v-5.88h25.44v5.45l-19.04,23.45h19.77v5.86h-28.23Z"/>
      <path class="cls-1" d="M193.38,251.08v-34.75h7.02v34.75h-7.02Z"/>
      <path class="cls-1" d="M244.05,251.08h-7.63l-3.03-7.89h-13.89l-2.87,7.89h-7.44l13.54-34.75h7.42l13.9,34.75Zm-12.92-13.75l-4.79-12.9-4.69,12.9h9.48Z"/>
    </g>
  </g>
</svg>