<?xml version="1.0" encoding="UTF-8"?>
<svg id="Livello_1" data-name="Livello 1" xmlns="http://www.w3.org/2000/svg" viewBox="0 0 1356.31 207.93">
  <defs>
    <style>
      .cls-1 {
        fill: #fff;
      }
    </style>
  </defs>
  <g>
    <path class="cls-1" d="M0,164.56V2.04C0,.88,.97,0,2.04,0H78.29c1.17,0,2.04,.97,2.04,2.04V22.59c0,1.17-.97,2.04-2.04,2.04H27.65c-1.17,0-2.04,.97-2.04,2.04V164.56c0,1.17-.97,2.04-2.04,2.04H2.04c-1.17,.1-2.04-.88-2.04-2.04"/>
    <path class="cls-1" d="M112.56,43.37V205.88c0,1.17-.97,2.04-2.04,2.04H34.18c-1.17,0-2.04-.97-2.04-2.04v-20.55c0-1.17,.97-2.04,2.04-2.04h50.63c1.17,0,2.04-.97,2.04-2.04V43.57c0-1.17,.97-2.04,2.04-2.04h21.52c1.27-.29,2.14,.68,2.14,1.85"/>
    <g>
      <path id="SVGID" class="cls-1" d="M73.81,152.17H40.21v12.56c0,1.46,1.17,2.63,2.63,2.63h28.34c1.46,0,2.63-1.17,2.63-2.63v-12.56Z"/>
      <rect id="SVGID-2" data-name="SVGID" class="cls-1" x="40.21" y="125.78" width="33.59" height="22.49"/>
      <rect id="SVGID-3" data-name="SVGID" class="cls-1" x="40.21" y="86.74" width="33.59" height="34.96"/>
      <rect id="SVGID-4" data-name="SVGID" class="cls-1" x="40.21" y="60.15" width="33.59" height="22.59"/>
      <path id="SVGID-5" data-name="SVGID" class="cls-1" d="M73.81,43.79c0-1.46-1.17-2.63-2.63-2.63h-28.34c-1.46,0-2.63,1.17-2.63,2.63v12.46h33.59v-12.46Z"/>
    </g>
  </g>
  <g>
    <path class="cls-1" d="M247.47,20.98h74.99c.99,0,1.73-.83,1.73-1.73V1.73c0-.99-.83-1.73-1.73-1.73h-96.79c-.99,0-1.73,.83-1.73,3.47V141.31c0-.74,.83,.08,1.73,.08h96.79c.99,0,1.73-.83,1.73-1.73v-17.43c0-.99-.83-1.73-1.73-1.73h-74.99c-.99,0-1.73-.83-1.73-1.73v-35.76c0-.99,.83-1.73,1.73-1.73h63.92c.99,0,1.73-.83,1.73-1.73v-17.43c0-.99-.83-1.73-1.73-1.73h-63.92c-.99,0-1.73-.83-1.73-1.73V23.13c0-1.4,.74-2.15,1.73-2.15"/>
    <path class="cls-1" d="M509.77,138.91l-33.45-51.54c-.58-.91-.17-2.15,.83-2.64,1.4-.66,2.81-1.32,4.21-2.15,10.57-6.03,17.92-15.03,22.22-27.09,0-.08,.08-.25,.08-.33,2.4-12.72,.66-23.87-5.04-33.37-4.05-6.77-9.5-12.06-16.35-15.94-6.85-3.88-14.37-5.86-22.63-5.86h-67.31c-.99,0-1.73,.83-1.73,1.73V139.58c0,.99,.83,1.73,1.73,1.73h18.25c.99,0,1.73-.83,1.73-1.73v-49.14c0-.99,.83-1.73,1.73-1.73h35.84c.58,0,1.16,.33,1.49,.83l32.62,51.04c.33,.5,.91,.83,1.49,.83l22.63,.17c1.57,.08,2.4-1.49,1.65-2.64m-97.29-72.93V22.88c0-.99,.83-1.73,1.73-1.73h40.8c5.12,0,9.75,.99,13.87,3.06,4.13,2.06,7.35,4.79,9.66,8.26,2.4,3.47,3.55,7.43,3.55,11.89s-1.07,8.26-3.14,11.81c-2.06,3.55-4.96,6.36-8.51,8.51-3.55,2.06-7.6,3.14-11.98,3.14h-44.27c-.99-.08-1.73-.83-1.73-1.82"/>
    <path class="cls-1" d="M638.2,21.14c27.83,0,50.38,22.3,50.38,49.64s-22.63,49.64-50.38,49.64-50.38-22.3-50.38-49.64,22.55-49.64,50.38-49.64m0-21.14c-39.64,0-71.85,31.71-71.85,70.78s32.21,70.78,71.85,70.78,71.85-31.71,71.85-70.78S677.84,0,638.2,0h0Z"/>
    <path class="cls-1" d="M798.42,139.41V22.63c0-.99-.83-1.73-1.73-1.73h-41.71c-.99,0-1.73-.83-1.73-1.73V1.73c0-.99,.83-1.73,1.73-1.73h109.93c.99,0,1.73,.83,1.73,1.73V19.16c0,.99-.83,1.73-1.73,1.73h-42.95c-.99,0-1.73,.83-1.73,1.73v116.78c0,.99-.83,1.73-1.73,1.73h-18.25c-.99,.08-1.82-.74-1.82-1.73"/>
    <path class="cls-1" d="M1039.99,138.91L981.52,1.07c-.25-.66-.91-1.07-1.65-1.07h-21.31c-.74,0-1.32,.41-1.65,1.07l-58.72,137.84c-.5,1.16,.33,2.48,1.65,2.48h18.58c.74,0,1.32-.41,1.65-1.07l13.79-32.21c.25-.66,.91-1.07,1.65-1.07h66.32c.74,0,1.32,.41,1.65,1.07l13.71,32.21c.25,.66,.91,1.07,1.65,1.07h19.74c1.07,0,1.9-1.32,1.4-2.48m-94.15-52.86c-1.24,0-2.15-1.32-1.65-2.48l13.46-31.47c.91-2.4,1.98-5.12,3.22-8.18,1.24-3.06,2.48-6.19,3.72-9.58s2.48-6.69,3.63-9.91c.17-.41,.25-.74,.41-1.16,0,.08,.08,.17,.08,.25,1.24,3.3,2.48,6.77,3.88,10.41,1.32,3.63,2.56,7.02,3.72,10.16,1.16,3.14,2.06,5.53,2.73,7.19l13.71,32.29c.5,1.16-.33,2.48-1.65,2.48h-45.26Z"/>
    <path class="cls-1" d="M1215.08,138.83l-33.45-51.45c-.58-.91-.17-2.15,.83-2.64,1.4-.66,2.81-1.32,4.21-2.15,10.57-6.03,17.92-15.03,22.22-27.09,0-.08,.08-.25,.08-.33,2.31-12.72,.66-23.87-5.04-33.37-4.05-6.77-9.5-12.06-16.35-15.94-6.85-3.88-14.37-5.86-22.63-5.86h-67.31c-.99,0-1.73,.83-1.73,1.73V139.58c0,.99,.83,1.73,1.73,1.73h18.25c.99,0,1.73-.83,1.73-1.73v-49.14c0-.99,.83-1.73,1.73-1.73h35.84c.58,0,1.16,.33,1.49,.83l32.62,51.04c.33,.5,.91,.83,1.49,.83l22.63,.17c1.57,0,2.48-1.57,1.65-2.73m-97.37-72.93V22.79c0-.99,.83-1.73,1.73-1.73h40.8c5.12,0,9.75,.99,13.87,3.06,4.13,2.06,7.35,4.79,9.66,8.26,2.31,3.47,3.55,7.43,3.55,11.89s-1.07,8.26-3.14,11.81c-2.06,3.55-4.87,6.36-8.51,8.51-3.63,2.15-7.6,3.14-12.06,3.14h-44.1c-.99-.08-1.82-.83-1.82-1.82"/>
    <path class="cls-1" d="M1356.22,34.03v17.26c0,.99-.83,1.73-1.73,1.73h-24.94c-.99,0-1.73,.83-1.73,1.73V119.26c0,.99,.83,1.73,1.73,1.73h24.94c.99,0,1.73,.83,1.73,1.73v17.26c0,.99-.83,1.73-1.73,1.73h-75.24c-.99,0-1.73-.83-1.73-1.73v-17.1c0-.99,.83-1.73,1.73-1.73h24.94c.99,0,1.73-.83,1.73-1.73V54.92c0-.99-.83-1.73-1.73-1.73h-24.94c-.99,0-1.73-.83-1.73-1.73v-17.26c0-.99,.83-1.73,1.73-1.73h75.24c.99-.17,1.73,.66,1.73,1.57"/>
    <g id="Livello_3_copia_2" data-name="Livello 3 copia 2">
      <g>
        <path id="SVGID-6" data-name="SVGID" class="cls-1" d="M1346.81,0V20.98h7.85c.91,0,1.65-.74,1.65-1.65V1.65c0-.91-.74-1.65-1.65-1.65h-7.85Z"/>
        <rect id="SVGID-7" data-name="SVGID" class="cls-1" x="1330.29" width="14.04" height="20.98"/>
        <rect id="SVGID-8" data-name="SVGID" class="cls-1" x="1306.01" width="21.8" height="20.98"/>
        <rect id="SVGID-9" data-name="SVGID" class="cls-1" x="1289.41" width="14.12" height="20.98"/>
        <path id="SVGID-10" data-name="SVGID" class="cls-1" d="M1279.17,0c-.91,0-1.65,.74-1.65,1.65V19.33c0,.91,.74,1.65,1.65,1.65h7.76V0h-7.76Z"/>
      </g>
    </g>
  </g>
  <g>
    <path class="cls-1" d="M234.01,207.76l-10.24-28.74h6.28l7.27,21.23,7.02-21.23h6.11l-10.24,28.74h-6.19Z"/>
    <path class="cls-1" d="M258.04,207.76v-28.74h21.31v4.87h-15.53v6.36h14.37v4.87h-14.37v7.85h16.02v4.87l-21.8-.08h0Z"/>
    <path class="cls-1" d="M289.51,207.76v-28.74h5.62l11.73,19.16v-19.16h5.37v28.74h-5.78l-11.56-18.75v18.75h-5.37Z"/>
    <path class="cls-1" d="M323.04,207.76v-28.74h21.31v4.87h-15.53v6.36h14.37v4.87h-14.37v7.85h16.02v4.87l-21.8-.08h0Z"/>
    <path class="cls-1" d="M351.94,207.76v-5.2l15.03-18.58h-13.38v-4.87h20.98v4.54l-15.69,19.41h16.35v4.87l-23.29-.17h0Z"/>
    <path class="cls-1" d="M383.41,207.76v-28.74h5.78v28.74h-5.78Z"/>
    <path class="cls-1" d="M425.28,207.76h-6.28l-2.48-6.52h-11.48l-2.4,6.52h-6.11l11.15-28.74h6.11l11.48,28.74Zm-10.65-11.31l-3.96-10.65-3.88,10.65h7.85Z"/>
  </g>
</svg>