<?xml version="1.0" encoding="utf-8"?>
<!-- Generator: Adobe Illustrator 27.0.0, SVG Export Plug-In . SVG Version: 6.00 Build 0)  -->
<svg version="1.1" id="Livello_1" xmlns="http://www.w3.org/2000/svg" xmlns:xlink="http://www.w3.org/1999/xlink" x="0px" y="0px"
	 viewBox="0 0 1500 1500" style="enable-background:new 0 0 1500 1500;" xml:space="preserve">
<style type="text/css">
	.st0{fill:#030303;}
</style>
<g id="Livello_3_copia_2">
	<g>
		<path d="M93.11,677.76h90.82c1.18,0,2.14-0.96,2.14-2.14v-21.14c0-1.18-0.96-2.14-2.14-2.14H66.7c-1.18,0-2.14,0.96-2.14,2.14
			v166.86c0,1.18,0.96,2.14,2.14,2.14h117.23c1.18,0,2.14-0.96,2.14-2.14V800.2c0-1.18-0.96-2.14-2.14-2.14H93.11
			c-1.18,0-2.14-0.96-2.14-2.14v-45.34c0-1.18,0.96-2.14,2.14-2.14h77.37c1.18,0,2.14-0.96,2.14-2.14v-21.14
			c0-1.18-0.96-2.14-2.14-2.14H93.11c-1.18,0-2.14-0.96-2.14-2.14v-40.94C90.96,678.73,91.92,677.76,93.11,677.76"/>
		<path d="M410.72,820.39l-40.47-62.34c-0.73-1.12-0.25-2.61,0.98-3.15c1.73-0.76,3.44-1.61,5.1-2.56
			c12.77-7.3,21.73-18.22,26.88-32.79c0.04-0.13,0.07-0.27,0.11-0.41c2.85-15.42,0.82-28.88-6.09-40.4
			c-4.89-8.15-11.49-14.59-19.81-19.32c-8.31-4.73-17.44-7.09-27.38-7.09h-81.46c-1.18,0-2.14,0.96-2.14,2.14v166.86
			c0,1.18,0.96,2.14,2.14,2.14h22.12c1.18,0,2.14-0.96,2.14-2.14v-59.52c0-1.18,0.96-2.14,2.14-2.14h43.42
			c0.73,0,1.41,0.37,1.81,0.99l39.53,61.84c0.39,0.61,1.06,0.98,1.79,0.99l27.37,0.21C410.62,823.72,411.65,821.82,410.72,820.39
			 M292.85,732.09V679.9c0-1.18,0.96-2.14,2.14-2.14h49.44c6.19,0,11.78,1.22,16.75,3.67s8.88,5.79,11.74,10.03
			c2.85,4.24,4.28,9.05,4.28,14.42c0,5.22-1.27,9.99-3.79,14.3c-2.53,4.32-5.95,7.74-10.27,10.27c-4.32,2.53-9.17,3.79-14.55,3.79
			h-53.6C293.81,734.25,292.85,733.28,292.85,732.09"/>
		<path class="st0" d="M566.15,677.92c33.65,0,61.02,26.96,61.02,60.1s-27.37,60.1-61.02,60.1s-61.02-26.96-61.02-60.1
			S532.5,677.92,566.15,677.92 M566.15,652.32c-48.05,0-87.01,38.37-87.01,85.7s38.95,85.7,87.01,85.7
			c48.05,0,87.01-38.37,87.01-85.7S614.2,652.32,566.15,652.32L566.15,652.32z"/>
		<path d="M760.2,821.34V679.91c0-1.18-0.96-2.14-2.14-2.14h-50.48c-1.18,0-2.14-0.96-2.14-2.14v-21.14c0-1.18,0.96-2.14,2.14-2.14
			h133.11c1.18,0,2.14,0.96,2.14,2.14v21.14c0,1.18-0.96,2.14-2.14,2.14h-51.95c-1.18,0-2.14,0.96-2.14,2.14v141.43
			c0,1.18-0.96,2.14-2.14,2.14h-22.12C761.16,823.49,760.2,822.52,760.2,821.34"/>
		<path d="M1052.74,820.5l-70.8-166.86c-0.34-0.79-1.11-1.31-1.97-1.31H954.2c-0.86,0-1.63,0.51-1.97,1.3l-71.27,166.86
			c-0.6,1.41,0.43,2.99,1.97,2.99h22.48c0.86,0,1.63-0.51,1.97-1.3l16.66-38.96c0.34-0.79,1.11-1.3,1.97-1.3h80.27
			c0.86,0,1.64,0.51,1.97,1.3l16.6,38.96c0.34,0.79,1.11,1.3,1.97,1.3h23.95C1052.31,823.48,1053.35,821.91,1052.74,820.5
			 M938.71,756.49c-1.54,0-2.58-1.57-1.97-2.99l16.29-38.09c1.14-2.93,2.44-6.24,3.91-9.9c1.47-3.67,2.97-7.54,4.52-11.61
			c1.55-4.07,3.02-8.07,4.4-11.98c0.17-0.48,0.33-0.94,0.5-1.41c0.04,0.11,0.07,0.2,0.11,0.31c1.47,3.99,3.01,8.19,4.65,12.59
			c1.63,4.4,3.14,8.52,4.52,12.35c1.38,3.83,2.48,6.72,3.3,8.68l16.64,39.07c0.6,1.41-0.44,2.99-1.97,2.99h-54.9L938.71,756.49
			L938.71,756.49z"/>
		<path d="M1264.72,820.39l-40.47-62.34c-0.73-1.12-0.25-2.61,0.98-3.15c1.73-0.76,3.44-1.61,5.1-2.56
			c12.77-7.3,21.73-18.22,26.88-32.79c0.04-0.13,0.07-0.27,0.11-0.41c2.85-15.42,0.82-28.88-6.09-40.4
			c-4.89-8.15-11.49-14.59-19.81-19.32c-8.31-4.73-17.44-7.09-27.38-7.09h-81.47c-1.18,0-2.14,0.96-2.14,2.14v166.86
			c0,1.18,0.96,2.14,2.14,2.14h22.12c1.18,0,2.14-0.96,2.14-2.14v-59.52c0-1.18,0.96-2.14,2.14-2.14h43.42
			c0.73,0,1.41,0.37,1.81,0.99l39.53,61.84c0.39,0.61,1.06,0.98,1.79,0.99l27.37,0.21C1264.62,823.72,1265.66,821.82,1264.72,820.39
			 M1146.85,732.09V679.9c0-1.18,0.96-2.14,2.14-2.14h49.44c6.19,0,11.78,1.22,16.75,3.67s8.88,5.79,11.74,10.03
			c2.85,4.24,4.28,9.05,4.28,14.42c0,5.22-1.27,9.99-3.79,14.3c-2.53,4.32-5.95,7.74-10.27,10.27s-9.17,3.79-14.55,3.79h-53.6
			C1147.81,734.25,1146.85,733.28,1146.85,732.09"/>
		<path d="M1435.62,693.44v20.89c0,1.18-0.96,2.14-2.14,2.14h-30.18c-1.18,0-2.14,0.96-2.14,2.14v78.06c0,1.18,0.96,2.14,2.14,2.14
			h30.18c1.18,0,2.14,0.96,2.14,2.14v20.89c0,1.18-0.96,2.14-2.14,2.14h-91.06c-1.18,0-2.14-0.96-2.14-2.14v-20.89
			c0-1.18,0.96-2.14,2.14-2.14h30.19c1.18,0,2.14-0.96,2.14-2.14v-78.06c0-1.18-0.96-2.14-2.14-2.14h-30.19
			c-1.18,0-2.14-0.96-2.14-2.14v-20.89c0-1.18,0.96-2.14,2.14-2.14h91.06C1434.65,691.3,1435.62,692.27,1435.62,693.44"/>
	</g>
	<g>
		<g>
			<g>
				<path id="SVGID_00000133519576879914763480000017979602967485746079_" d="M1421.87,652.33v25.4h12.75c0.55,0,1-0.45,1-1v-23.4
					c0-0.55-0.45-1-1-1H1421.87z"/>
			</g>
		</g>
		<g>
			<g>
				<rect id="SVGID_00000082369867222896662050000006221184823394314157_" x="1401.31" y="652.34" width="18.85" height="25.4"/>
			</g>
		</g>
		<g>
			<g>
				<rect id="SVGID_00000076604144995604676470000005614933427128424871_" x="1376.34" y="652.34" width="23.18" height="25.4"/>
			</g>
		</g>
		<g>
			<g>
				<rect id="SVGID_00000115486305788642685740000008934099811993721525_" x="1355.72" y="652.34" width="18.85" height="25.4"/>
			</g>
		</g>
		<g>
			<g>
				<path id="SVGID_00000052817647790639342180000016622721843397658039_" d="M1341.21,652.33c-0.5,0-0.9,0.4-0.9,0.9v23.6
					c0,0.5,0.4,0.9,0.9,0.9h12.85v-25.4H1341.21z"/>
			</g>
		</g>
	</g>
	<g>
		<path d="M76.77,903.4l-12.42-34.75h7.61l8.79,25.72l8.51-25.72h7.44L84.27,903.4H76.77z"/>
		<path d="M105.92,903.4v-34.75h25.77v5.88h-18.75v7.7h17.45v5.86h-17.45v9.46h19.42v5.86H105.92z"/>
		<path d="M144.01,903.4v-34.75h6.83l14.22,23.21v-23.21h6.52v34.75h-7.04l-14.01-22.66v22.66H144.01z"/>
		<path d="M184.63,903.4v-34.75h25.77v5.88h-18.75v7.7h17.45v5.86h-17.45v9.46h19.42v5.86H184.63z"/>
		<path d="M219.64,903.4v-6.33l18.25-22.54H221.7v-5.88h25.44v5.45l-19.04,23.45h19.77v5.86H219.64z"/>
		<path d="M257.73,903.4v-34.75h7.02v34.75H257.73z"/>
		<path d="M308.4,903.4h-7.63l-3.03-7.89h-13.89l-2.87,7.89h-7.44l13.54-34.75h7.42L308.4,903.4z M295.48,889.65l-4.79-12.9
			l-4.69,12.9H295.48z"/>
	</g>
</g>
</svg>
