<?xml version="1.0" encoding="utf-8"?>
<!-- Generator: Adobe Illustrator 27.0.0, SVG Export Plug-In . SVG Version: 6.00 Build 0)  -->
<svg version="1.1" id="Livello_1" xmlns="http://www.w3.org/2000/svg" xmlns:xlink="http://www.w3.org/1999/xlink" x="0px" y="0px"
	 viewBox="0 0 270 270" style="enable-background:new 0 0 270 270;" xml:space="preserve">
<style type="text/css">
	.st0{fill:#616160;}
</style>
<g>
	<path class="st0" d="M77,197.7V29.6c0-1.2,1-2.1,2.1-2.1H158c1.2,0,2.1,1,2.1,2.1v21.3c0,1.2-1,2.1-2.1,2.1h-52.4
		c-1.2,0-2.1,1-2.1,2.1v142.6c0,1.2-1,2.1-2.1,2.1H79.1C77.9,199.9,77,198.9,77,197.7"/>
	<path class="st0" d="M193.5,72.3v168.1c0,1.2-1,2.1-2.1,2.1h-79c-1.2,0-2.1-1-2.1-2.1v-21.3c0-1.2,1-2.1,2.1-2.1h52.4
		c1.2,0,2.1-1,2.1-2.1V72.5c0-1.2,1-2.1,2.1-2.1h22.3C192.6,70.1,193.5,71.1,193.5,72.3"/>
	<g>
		<g>
			<g>
				<path id="SVGID_00000151519397512448193820000013106379601329683901_" class="st0" d="M153.4,184.9h-34.8v13
					c0,1.5,1.2,2.7,2.7,2.7h29.3c1.5,0,2.7-1.2,2.7-2.7V184.9z"/>
			</g>
		</g>
		<g>
			<g>
				
					<rect id="SVGID_00000147181853504452347830000017326439730729781425_" x="118.6" y="157.6" class="st0" width="34.8" height="23.3"/>
			</g>
		</g>
		<g>
			<g>
				
					<rect id="SVGID_00000102516338056396448350000012136483376094114437_" x="118.6" y="117.2" class="st0" width="34.8" height="36.2"/>
			</g>
		</g>
		<g>
			<g>
				
					<rect id="SVGID_00000038386569295744459370000011390557455820039086_" x="118.6" y="89.7" class="st0" width="34.8" height="23.4"/>
			</g>
		</g>
		<g>
			<g>
				<path id="SVGID_00000010996461348683897410000011184911120899583120_" class="st0" d="M153.4,72.8c0-1.5-1.2-2.7-2.7-2.7h-29.3
					c-1.5,0-2.7,1.2-2.7,2.7v12.9h34.8V72.8z"/>
			</g>
		</g>
	</g>
</g>
</svg>
